<svg id="Layer_1" data-name="Layer 1" xmlns="http://www.w3.org/2000/svg" viewBox="0 0 460 420"><defs><style>.cls-1{fill:#80dd95;}.cls-2{fill:#fff;}.cls-3{fill:#ff8080;}.cls-4{opacity:0.2;}.cls-5{fill:#98dba1;}.cls-6{fill:#92bbff;}.cls-7{fill:#b1f0ef;}.cls-8{fill:#fdd499;}</style></defs><path class="cls-1" d="M269.92,275.78a36.72,36.72,0,0,1,44.3-35.91V151.81A23.86,23.86,0,0,0,290.37,128H159.17a23.86,23.86,0,0,0-23.85,23.86V262.74a23.85,23.85,0,0,0,23.85,23.85H271.55A36.36,36.36,0,0,1,269.92,275.78Z"/><path class="cls-2" d="M251.06,134a26.29,26.29,0,1,0-48.81,13.38h45A26,26,0,0,0,251.06,134"/><path class="cls-1" d="M247.29,151.82h-45a4.47,4.47,0,0,1-3.84-2.18,30.76,30.76,0,1,1,52.71,0A4.46,4.46,0,0,1,247.29,151.82Zm-42.36-8.93h39.68a21,21,0,0,0,2-8.91,21.83,21.83,0,1,0-43.66,0A21,21,0,0,0,204.93,142.89Z"/><path class="cls-2" d="M180.62,238.88h-.13a5.68,5.68,0,0,1-4.05-1.85L162.57,221.8a5.65,5.65,0,0,1,8.36-7.61L180.81,225l28.42-28.49a5.65,5.65,0,1,1,8,8l-32.61,32.7A5.66,5.66,0,0,1,180.62,238.88Z"/><path class="cls-2" d="M282.79,188.77h-40.9a6.29,6.29,0,0,1,0-12.58h40.9a6.29,6.29,0,0,1,0,12.58Z"/><path class="cls-2" d="M282.79,223.16h-40.9a6.29,6.29,0,0,1,0-12.57h40.9a6.29,6.29,0,0,1,0,12.57Z"/><path class="cls-2" d="M263.92,151.82h-78.3a4.47,4.47,0,1,1,0-8.93h78.3a4.47,4.47,0,0,1,0,8.93Z"/><circle class="cls-3" cx="306.63" cy="275.78" r="29.64"/><path class="cls-2" d="M306.63,289.42a1.78,1.78,0,0,1-1.78-1.78V263.92a1.78,1.78,0,0,1,3.56,0v23.72A1.78,1.78,0,0,1,306.63,289.42Z"/><path class="cls-2" d="M318.48,277.56H294.77a1.78,1.78,0,1,1,0-3.56h23.71a1.78,1.78,0,0,1,0,3.56Z"/><g class="cls-4"><circle class="cls-5" cx="333.42" cy="33.7" r="18.73"/><circle class="cls-5" cx="279.27" cy="388.66" r="12.57"/><circle class="cls-5" cx="400.55" cy="298.74" r="9.81"/><circle class="cls-5" cx="179.56" cy="384.31" r="26.21"/><circle class="cls-6" cx="70.66" cy="129.65" r="17.39"/><circle class="cls-3" cx="40.26" cy="273.19" r="15.9"/><circle class="cls-7" cx="127" cy="326.12" r="11.7"/><circle class="cls-6" cx="423.94" cy="102.19" r="11.7"/><circle class="cls-8" cx="395.13" cy="237.91" r="18.28"/><circle class="cls-8" cx="136.6" cy="220.89" r="17.21"/><circle class="cls-3" cx="353.81" cy="138.41" r="12.81"/><circle class="cls-3" cx="93.04" cy="20.46" r="10.98"/><circle class="cls-7" cx="217.81" cy="47.47" r="16.81"/></g><path class="cls-2" d="M285.64,245.68a6.25,6.25,0,0,0-2.85-.69h-40.9a6.29,6.29,0,0,0,0,12.57h32.88A36.91,36.91,0,0,1,285.64,245.68Z"/></svg>